PathFileType	4	(X/Y/Z)	D:\Share\Shared_Data\Ergonomics\Sit To Stand Pertubation\S3\Unperturbed.trc
DataRate	CameraRate	NumFrames	NumMarkers	Units	OrigDataRate	OrigDataStartFrame	OrigNumFrames	
100	100	11	18	m	100	5651	251
Frame#	Time	R_Thigh			R_ASIS			R_Pelvis			V_Sacral			L_Pelvis			L_ASIS			Clavical			R_Acromium			L_Acromium			Sternum			Torso			R_Thigh_Med			R_Thigh_Lat			R_Shank_Med			R_Shank_Lat			R_Shank			R_Heel			R_Toe			
		X1	Y1	Z1	X2	Y2	Z2	X3	Y3	Z3	X4	Y4	Z4	X5	Y5	Z5	X6	Y6	Z6	X7	Y7	Z7	X8	Y8	Z8	X9	Y9	Z9	X10	Y10	Z10	X11	Y11	Z11	X12	Y12	Z12	X13	Y13	Z13	X14	Y14	Z14	X15	Y15	Z15	X16	Y16	Z16	X17	Y17	Z17	X18	Y18	Z18	

5651	56.5	0.13985063	0.58467328	0.11470827	-0.043266834	0.65513232	0.15004358	-0.14771478	0.62274847	0.20546642	-0.25800046	0.60563019	0.021301643	-0.15334143	0.64151154	-0.18810501	-0.047296234	0.65087244	-0.12692589	-0.12865688	1.0328868	0.0038589504	-0.1778969	1.0856915	0.18069695	-0.18055673	1.0851249	-0.14811388	-0.094405045	0.96403888	0.010686653	-0.12344434	1.0212587	-0.057467377	0.32502933	0.47064172	0.073709312	0.31021655	0.45013211	0.19107666	0.25848764	0.10745296	0.093505562	0.23534065	0.099404747	0.17293422	0.25505891	0.27328851	0.19596912	0.1807773	0.050541862	0.11863107	0.39800089	0.056143986	0.13920514
5652	56.51	0.13986365	0.5846532	0.11470213	-0.043266129	0.65515369	0.14996967	-0.14771234	0.62277271	0.205354	-0.25798975	0.60560492	0.021248835	-0.15334109	0.64148834	-0.18815483	-0.047298695	0.65086145	-0.12696768	-0.12875208	1.032854	0.0037780905	-0.17797745	1.0856591	0.18062819	-0.18067525	1.0851189	-0.14819641	-0.094516785	0.96402808	0.01059436	-0.12358154	1.0212332	-0.05757938	0.32504871	0.47063412	0.073778984	0.31021518	0.45014258	0.19117062	0.2585025	0.1074626	0.093517891	0.23534277	0.099391685	0.17295212	0.25504002	0.2732811	0.19600418	0.18077672	0.050546143	0.11863281	0.39799887	0.05614883	0.1392114
5653	56.52	0.13987886	0.5846347	0.11470824	-0.043267822	0.65517065	0.14990849	-0.14769856	0.6227821	0.2052253	-0.2579736	0.60557904	0.02119866	-0.15333054	0.641466	-0.18819572	-0.047297157	0.65084973	-0.12699294	-0.12883925	1.032824	0.0036970942	-0.17806596	1.0856381	0.18055173	-0.18076456	1.0851047	-0.14828693	-0.094621849	0.96402222	0.010504997	-0.12370549	1.0212076	-0.057691669	0.32506992	0.47062549	0.073857437	0.31021402	0.4501499	0.1912726	0.2585199	0.10747305	0.093528961	0.2353559	0.099376381	0.17297157	0.25501958	0.27327206	0.19604172	0.18077707	0.050550568	0.1186321	0.39799792	0.056152618	0.13921777
5654	56.53	0.13989439	0.58461804	0.11472604	-0.043271935	0.65518225	0.14986197	-0.14767857	0.62278033	0.20509381	-0.25795261	0.60555371	0.021151379	-0.15331006	0.64144543	-0.18822841	-0.047291275	0.65083777	-0.12700345	-0.12891862	1.032796	0.0036181161	-0.17816519	1.0856272	0.18046927	-0.18082455	1.0850808	-0.14838214	-0.094719696	0.9640177	0.010420323	-0.12381221	1.0211804	-0.057798801	0.32509253	0.47061667	0.073944588	0.31021136	0.45015359	0.19138124	0.25853879	0.10748404	0.093539032	0.23537721	0.099360573	0.17299081	0.25499741	0.27326202	0.1960816	0.18077852	0.050554409	0.11862921	0.39799759	0.056155647	0.13922427
5655	56.54	0.1399086	0.58460272	0.11475519	-0.043277946	0.65518878	0.1498316	-0.14765767	0.6227699	0.20497226	-0.25792734	0.60553015	0.021106932	-0.15328015	0.64142767	-0.18825426	-0.04728043	0.65082623	-0.12700248	-0.12898997	1.0327697	0.0035431647	-0.1782769	1.085625	0.18038261	-0.18085583	1.0850482	-0.14847838	-0.094809624	0.9640108	0.010342244	-0.12389874	1.0211503	-0.057895741	0.32511661	0.4706087	0.074041016	0.31020532	0.45015332	0.19149567	0.25855786	0.10749516	0.093548485	0.23540433	0.099346687	0.17300809	0.25497353	0.27325143	0.19612389	0.18078085	0.050557426	0.11862495	0.39799744	0.056158161	0.13923058
5656	56.55	0.1399202	0.58458807	0.11479556	-0.043284847	0.65519165	0.14981804	-0.14763965	0.62275342	0.20486891	-0.25789862	0.60550922	0.021065119	-0.15324167	0.64141388	-0.1882749	-0.047264664	0.65081573	-0.1269937	-0.12905325	1.0327439	0.0034739115	-0.1784015	1.0856298	0.18029343	-0.18085953	1.0850076	-0.14857239	-0.094891319	0.96399835	0.010272942	-0.12396349	1.0211172	-0.057978279	0.32514227	0.47060248	0.074147614	0.31019424	0.45014874	0.19161565	0.25857568	0.10750596	0.093557838	0.2354351	0.099336136	0.17302278	0.25494838	0.27324063	0.19616881	0.1807838	0.050559734	0.11862022	0.39799707	0.056160423	0.13923636
5657	56.56	0.13992868	0.58457318	0.11484721	-0.043291492	0.65519244	0.14982053	-0.14762613	0.62273456	0.20478696	-0.25786755	0.60549115	0.021025864	-0.15319609	0.64140485	-0.18829202	-0.047245033	0.65080664	-0.12698014	-0.12910863	1.0327178	0.0034114697	-0.17853827	1.0856405	0.18020311	-0.18083693	1.0849603	-0.14866222	-0.094964836	0.96397803	0.010214698	-0.12400655	1.0210799	-0.058043991	0.32516943	0.47059866	0.07426535	0.31017752	0.45013992	0.19174138	0.25859131	0.10751638	0.093567673	0.23546669	0.099328941	0.17303546	0.25492274	0.27322961	0.19621713	0.18078677	0.050561913	0.11861627	0.39799637	0.056162682	0.13924162
5658	56.57	0.13993423	0.58455774	0.11491018	-0.043297215	0.65519208	0.1498365	-0.14761731	0.62271661	0.2047261	-0.25783521	0.6054751	0.020989378	-0.1531454	0.64140112	-0.18830678	-0.047223068	0.65079907	-0.12696352	-0.12915662	1.0326903	0.0033560879	-0.17868552	1.0856558	0.18011238	-0.18078955	1.0849082	-0.14874689	-0.095030579	0.96394861	0.010169403	-0.12402966	1.021037	-0.058092957	0.32519775	0.47059836	0.074395279	0.31015576	0.45012793	0.19187367	0.25860449	0.10752677	0.093578644	0.23549551	0.099324326	0.17304761	0.25489757	0.27321848	0.19626997	0.18078929	0.050564716	0.11861457	0.3979949	0.056165215	0.13924666
5659	56.58	0.13993748	0.58454169	0.1149845	-0.043302277	0.65519098	0.14986188	-0.14761285	0.62270203	0.20468433	-0.25780298	0.60545972	0.020956253	-0.15309171	0.64140192	-0.18831966	-0.047199802	0.65079248	-0.12694459	-0.12919795	1.0326605	0.003307003	-0.17884079	1.0856746	0.18002145	-0.18071899	1.0848528	-0.14882649	-0.095088982	0.96390973	0.010138049	-0.1240358	1.0209866	-0.05812748	0.32522675	0.47060327	0.074538391	0.31013074	0.45011456	0.19201407	0.25861575	0.10753791	0.09359156	0.23551747	0.099321678	0.17306052	0.25487318	0.27320715	0.19632863	0.18079109	0.050568653	0.11861617	0.39799261	0.05616835	0.13925206
5660	56.59	0.1399393	0.58452533	0.11507018	-0.043307854	0.6551889	0.14989241	-0.14761259	0.62269196	0.20465924	-0.25777219	0.60544269	0.020927391	-0.15303714	0.64140656	-0.18833035	-0.047174995	0.65078595	-0.12692384	-0.12923341	1.0326276	0.003262661	-0.17900084	1.0856954	0.1799304	-0.1806275	1.0847961	-0.14890213	-0.095140411	0.96386243	0.010120522	-0.12402837	1.0209272	-0.058151089	0.32525644	0.47061475	0.07469593	0.31010498	0.4501019	0.1921649	0.25862589	0.1075507	0.093607246	0.23552867	0.099321625	0.17307419	0.25484886	0.2731955	0.19639432	0.18079213	0.050574066	0.1186215	0.39798953	0.056172493	0.13925836
5661	56.6	0.13994041	0.58450922	0.11516711	-0.043315598	0.65518567	0.14992485	-0.14761705	0.6226864	0.20464874	-0.2577439	0.60542212	0.02090361	-0.15298369	0.64141296	-0.1883378	-0.047147438	0.65077875	-0.12690205	-0.1292637	1.0325909	0.0032211485	-0.17916208	1.0857174	0.17983931	-0.18051785	1.0847401	-0.14897568	-0.095185165	0.96380792	0.010115693	-0.12401051	1.0208593	-0.058167538	0.32528717	0.47063342	0.074869026	0.31008041	0.45009143	0.19232812	0.25863577	0.10756577	0.093626328	0.23552649	0.099325783	0.17308705	0.25482281	0.27318338	0.19646799	0.18079218	0.050581409	0.11863052	0.39798602	0.056177956	0.13926582
